<?xml version="1.0" encoding="utf-8"?>
<!-- Generator: Adobe Illustrator 23.0.1, SVG Export Plug-In . SVG Version: 6.00 Build 0)  -->
<svg version="1.1" xmlns="http://www.w3.org/2000/svg" xmlns:xlink="http://www.w3.org/1999/xlink" x="0px" y="0px"
	 viewBox="0 0 60 60" style="enable-background:new 0 0 60 60;" xml:space="preserve">
<style type="text/css">
	.st0{display:none;}
	.st1{display:inline;fill:#FFFFFF;stroke:#000000;stroke-width:2;stroke-linecap:round;stroke-miterlimit:10;}
	.st2{display:inline;}
	.st3{fill:#FFFFFF;stroke:#000000;stroke-width:2;stroke-linecap:round;stroke-miterlimit:10;}
</style>
<g id="Layer_4" class="st0">
	<path class="st1" d="M53.1,6c0,6-0.1,48-0.1,48"/>
	<rect x="35" y="23" transform="matrix(-2.087332e-03 1 -1 -2.087332e-03 76.096 -15.9373)" class="st2" width="22" height="14"/>
</g>
<g id="Layer_5" class="st0">
	<path class="st1" d="M7.2,54c0-6-0.3-48-0.3-48"/>
	<rect x="3" y="23" transform="matrix(-6.744838e-03 -1 1 -6.744838e-03 -15.9049 44.202)" class="st2" width="22" height="14"/>
</g>
<g id="Layer_6" class="st0">
	<rect x="19" y="23" transform="matrix(-1.836970e-16 1 -1 -1.836970e-16 60 -2.202682e-13)" class="st2" width="22" height="14"/>
	<path class="st1" d="M30,6c0,6,0,48,0,48"/>
</g>
<g id="Layer_1" class="st0">
	<path class="st1" d="M6,7c6,0,48,0,48,0"/>
	<rect x="19" y="7" class="st2" width="22" height="14"/>
</g>
<g id="Layer_2" class="st0">
	<rect x="19" y="23" class="st2" width="22" height="14"/>
	<path class="st1" d="M6,30c6,0,48,0,48,0"/>
</g>
<g id="Layer_3">
	<rect x="19" y="39" width="22" height="14"/>
	<path class="st3" d="M6,53c6,0,48,0,48,0"/>
</g>
</svg>
