<?xml version="1.0" encoding="utf-8"?>
<!-- Generator: Adobe Illustrator 23.0.1, SVG Export Plug-In . SVG Version: 6.00 Build 0)  -->
<svg version="1.1" xmlns="http://www.w3.org/2000/svg" xmlns:xlink="http://www.w3.org/1999/xlink" x="0px" y="0px"
	 viewBox="0 0 60 60" style="enable-background:new 0 0 60 60;" xml:space="preserve">
<style type="text/css">
	.st0{fill:#FFFFFF;stroke:#000000;stroke-width:2;stroke-linecap:round;stroke-miterlimit:10;}
	.st1{display:none;}
	.st2{display:inline;}
	.st3{display:inline;fill:#FFFFFF;stroke:#000000;stroke-width:2;stroke-linecap:round;stroke-miterlimit:10;}
</style>
<g id="Layer_3">
	<rect x="16" y="42" width="28" height="8"/>
	<path class="st0" d="M6,53c6,0,48,0,48,0"/>
	<rect x="12" y="32" width="36" height="8"/>
</g>
<g id="Layer_2" class="st1">
	<rect x="12" y="19" class="st2" width="36" height="8"/>
	<path class="st3" d="M6,30c6,0,48,0,48,0"/>
	<rect x="16" y="33" class="st2" width="28" height="8"/>
</g>
<g id="Layer_4" class="st1">
	<rect x="16" y="20" class="st2" width="28" height="8"/>
	<path class="st3" d="M6,7c6,0,48,0,48,0"/>
	<rect x="12" y="10" class="st2" width="36" height="8"/>
</g>
<g id="Layer_5" class="st1">
	<rect x="17" y="42" class="st2" width="28" height="8"/>
	<path class="st3" d="M6,53c6,0,48,0,48,0"/>
	<rect x="13" y="10" class="st2" width="36" height="8"/>
	<path class="st3" d="M6,7c6,0,48,0,48,0"/>
</g>
<g id="Layer_6" class="st1">
	<rect x="17" y="37" class="st2" width="28" height="8"/>
	<path class="st3" d="M6,53c6,0,48,0,48,0"/>
	<rect x="13" y="14" class="st2" width="36" height="8"/>
	<path class="st3" d="M6,7c6,0,48,0,48,0"/>
	<path class="st3" d="M6,30c6,0,48,0,48,0"/>
</g>
</svg>
