<?xml version="1.0" encoding="utf-8"?>
<!-- Generator: Adobe Illustrator 23.0.1, SVG Export Plug-In . SVG Version: 6.00 Build 0)  -->
<svg version="1.1" xmlns="http://www.w3.org/2000/svg" xmlns:xlink="http://www.w3.org/1999/xlink" x="0px" y="0px"
	 viewBox="0 0 60 60" style="enable-background:new 0 0 60 60;" xml:space="preserve">
<style type="text/css">
	.st0{display:none;}
	.st1{display:inline;}
	.st2{display:inline;fill:#FFFFFF;stroke:#000000;stroke-width:2;stroke-linecap:round;stroke-miterlimit:10;}
	.st3{fill:#FFFFFF;stroke:#000000;stroke-width:2;stroke-linecap:round;stroke-miterlimit:10;}
</style>
<g id="Layer_3" class="st0">
	<rect x="30" y="31" class="st1" width="23" height="8"/>
	<path class="st2" d="M53,54c0-6,0-48,0-48"/>
	<rect x="23" y="21" class="st1" width="30" height="8"/>
</g>
<g id="Layer_2" class="st0">
	<rect x="7" y="31" class="st1" width="23" height="8"/>
	<path class="st2" d="M7,54C7,48,7,6,7,6"/>
	<rect x="7" y="21" class="st1" width="30" height="8"/>
</g>
<g id="Layer_6" class="st0">
	<rect x="10" y="31" class="st1" width="23" height="8"/>
	<path class="st2" d="M16,54c0-6,0-48,0-48"/>
	<rect x="7" y="21" class="st1" width="30" height="8"/>
</g>
<g id="Layer_4" class="st0">
	<rect x="18" y="31" class="st1" width="23" height="8"/>
	<path class="st2" d="M30,54c0-6,0-48,0-48"/>
	<rect x="15" y="21" class="st1" width="30" height="8"/>
</g>
<g id="Layer_5">
	<rect x="7" y="31" width="46" height="8"/>
	<path class="st3" d="M7,54C7,48,7,6,7,6"/>
	<rect x="7" y="21" width="46" height="8"/>
	<path class="st3" d="M53,54c0-6,0-48,0-48"/>
</g>
</svg>
